<svg width="14" height="19" viewBox="0 0 14 19" fill="none" xmlns="http://www.w3.org/2000/svg">
<g clip-path="url(#clip0_2_41)">
<path d="M7.00006 5.1059C4.05635 5.1059 1.66138 7.5009 1.66138 10.4446C1.66138 13.3884 4.05638 15.7834 7.00006 15.7834C9.94393 15.7834 12.3387 13.3884 12.3387 10.4446C12.3387 7.5009 9.94377 5.1059 7.00006 5.1059ZM7.00006 14.8159C4.58991 14.8159 2.6291 12.8549 2.6291 10.4448C2.6291 8.03462 4.58988 6.07381 7.00006 6.07381C9.41024 6.07381 11.371 8.03462 11.371 10.4448C11.371 12.8551 9.41021 14.8159 7.00006 14.8159Z" fill="#F5A200"/>
<path d="M8.48387 10.2834H7.19358V8.4124C7.19358 8.14514 6.97696 7.92853 6.7097 7.92853C6.44245 7.92853 6.22583 8.14514 6.22583 8.4124V10.7672C6.22583 11.0345 6.44245 11.2511 6.7097 11.2511H8.4839C8.75115 11.2511 8.96777 11.0345 8.96777 10.7672C8.96774 10.5 8.75113 10.2834 8.48387 10.2834Z" fill="#F5A200"/>
<path d="M4.25923 13.9077C4.06052 13.7288 3.75454 13.7451 3.57585 13.9436L2.12423 15.5565C1.94535 15.7551 1.96165 16.061 2.16019 16.2398C2.25261 16.3232 2.36841 16.3641 2.48375 16.3641C2.61617 16.3641 2.74811 16.3101 2.84359 16.2038L4.29521 14.5909C4.47406 14.3923 4.45777 14.0864 4.25923 13.9077Z" fill="#F5A200"/>
<path d="M11.8758 15.5567L10.4242 13.9438C10.2458 13.7451 9.93973 13.729 9.74099 13.9079C9.54229 14.0866 9.52632 14.3925 9.70504 14.5911L11.1567 16.204C11.252 16.3101 11.3839 16.3641 11.5163 16.3641C11.6315 16.3641 11.7473 16.3232 11.8399 16.2399C12.0386 16.0612 12.0546 15.7553 11.8758 15.5567Z" fill="#F5A200"/>
<path d="M4.17713 4.34108C3.21567 3.39964 1.66586 3.40109 0.72248 4.34464C0.253099 4.81383 -0.00335742 5.43464 3.31949e-05 6.09269C0.00358787 6.74284 0.261329 7.35156 0.726007 7.80672C0.820206 7.89882 0.942295 7.94478 1.06455 7.94478C1.18842 7.94478 1.31228 7.89737 1.40664 7.80317L4.18082 5.02899C4.27212 4.93756 4.32309 4.8135 4.32243 4.68433C4.32181 4.5551 4.26952 4.43156 4.17713 4.34108ZM1.11762 6.72348C1.02069 6.52816 0.9689 6.31204 0.967779 6.08752C0.965674 5.69011 1.12148 5.31397 1.40664 5.0288C1.69116 4.74445 2.06729 4.60235 2.44551 4.60235C2.66664 4.60235 2.88859 4.65088 3.09309 4.74798L1.11762 6.72348Z" fill="#F5A200"/>
<path d="M13.2776 4.34451C12.3341 3.40113 10.7843 3.39952 9.82283 4.34096C9.73057 4.43144 9.67815 4.555 9.6775 4.68418C9.67684 4.81337 9.72797 4.93757 9.81927 5.02884L12.5934 7.80302C12.6878 7.89755 12.8117 7.9448 12.9355 7.9448C13.0578 7.9448 13.1801 7.89883 13.2741 7.80641C13.7389 7.35141 13.9967 6.74271 14.0001 6.09254C14.0035 5.43468 13.7468 4.81387 13.2776 4.34451ZM12.8825 6.72352L10.907 4.74805C11.4615 4.48481 12.1427 4.57822 12.5935 5.02901C12.8786 5.31417 13.0344 5.69012 13.0323 6.08772C13.0312 6.31208 12.9794 6.52837 12.8825 6.72352Z" fill="#F5A200"/>
</g>
<defs>
<clipPath id="clip0_2_41">
<rect width="14" height="14" fill="white" transform="translate(0 3)"/>
</clipPath>
</defs>
</svg>
