<svg width="12" height="12" viewBox="0 0 12 12" fill="none" xmlns="http://www.w3.org/2000/svg">
<g clip-path="url(#clip0_2_15)">
<path d="M5.76242 1.14749C5.78433 1.10322 5.81818 1.06596 5.86015 1.03991C5.90212 1.01385 5.95053 1.00005 5.99992 1.00005C6.04932 1.00005 6.09773 1.01385 6.1397 1.03991C6.18166 1.06596 6.21551 1.10322 6.23742 1.14749L7.39242 3.48699C7.46851 3.64098 7.58083 3.7742 7.71974 3.87522C7.85864 3.97624 8.01999 4.04205 8.18992 4.06699L10.7729 4.44499C10.8219 4.45208 10.8678 4.47273 10.9057 4.50459C10.9435 4.53646 10.9716 4.57827 10.9869 4.6253C11.0022 4.67232 11.0041 4.7227 10.9922 4.77071C10.9804 4.81873 10.9553 4.86247 10.9199 4.89699L9.05192 6.71599C8.92873 6.83604 8.83656 6.98423 8.78334 7.14781C8.73012 7.31138 8.71745 7.48544 8.74642 7.65499L9.18742 10.225C9.19606 10.2739 9.19078 10.3243 9.17217 10.3703C9.15357 10.4164 9.12239 10.4563 9.0822 10.4855C9.042 10.5147 8.99441 10.532 8.94486 10.5354C8.8953 10.5389 8.84577 10.5283 8.80192 10.505L6.49292 9.29099C6.34078 9.21111 6.17151 9.16937 5.99967 9.16937C5.82783 9.16937 5.65856 9.21111 5.50642 9.29099L3.19792 10.505C3.15409 10.5282 3.10462 10.5386 3.05515 10.5351C3.00568 10.5316 2.95818 10.5143 2.91807 10.4851C2.87796 10.4559 2.84684 10.4161 2.82825 10.3701C2.80966 10.3241 2.80435 10.2738 2.81292 10.225L3.25342 7.65549C3.28252 7.48586 3.26992 7.31169 3.21669 7.14802C3.16347 6.98434 3.07123 6.83607 2.94792 6.71599L1.07992 4.89749C1.04422 4.86301 1.01892 4.81919 1.0069 4.77103C0.994889 4.72287 0.996642 4.6723 1.01196 4.62509C1.02728 4.57787 1.05556 4.53591 1.09356 4.50398C1.13157 4.47205 1.17778 4.45144 1.22692 4.44449L3.80942 4.06699C3.97955 4.04224 4.14112 3.97652 4.28022 3.87549C4.41931 3.77445 4.53177 3.64113 4.60792 3.48699L5.76242 1.14749Z" fill="#F5A200" stroke="#F5A200" stroke-linecap="round" stroke-linejoin="round"/>
</g>
<defs>
<clipPath id="clip0_2_15">
<rect width="12" height="12" fill="white"/>
</clipPath>
</defs>
</svg>
