<svg xmlns="http://www.w3.org/2000/svg" width="450" height="450" viewBox="0 0 450 450" role="img" aria-label="QR de registro Futbol Fest X">
	<metadata>Encoded URL: https://futbolfestx.com/registro-qr/</metadata>
	<rect width="100%" height="100%" fill="#FFFFFF"/>
	<path fill="#0D1B4B" d="M40,40h10v10h-10z M50,40h10v10h-10z M60,40h10v10h-10z M70,40h10v10h-10z M80,40h10v10h-10z M90,40h10v10h-10z M100,40h10v10h-10z M120,40h10v10h-10z M140,40h10v10h-10z M160,40h10v10h-10z M170,40h10v10h-10z M210,40h10v10h-10z M220,40h10v10h-10z M230,40h10v10h-10z M240,40h10v10h-10z M260,40h10v10h-10z M280,40h10v10h-10z M300,40h10v10h-10z M320,40h10v10h-10z M340,40h10v10h-10z M350,40h10v10h-10z M360,40h10v10h-10z M370,40h10v10h-10z M380,40h10v10h-10z M390,40h10v10h-10z M400,40h10v10h-10z M40,50h10v10h-10z M100,50h10v10h-10z M120,50h10v10h-10z M160,50h10v10h-10z M170,50h10v10h-10z M190,50h10v10h-10z M210,50h10v10h-10z M240,50h10v10h-10z M250,50h10v10h-10z M260,50h10v10h-10z M290,50h10v10h-10z M310,50h10v10h-10z M340,50h10v10h-10z M400,50h10v10h-10z M40,60h10v10h-10z M60,60h10v10h-10z M70,60h10v10h-10z M80,60h10v10h-10z M100,60h10v10h-10z M120,60h10v10h-10z M150,60h10v10h-10z M170,60h10v10h-10z M180,60h10v10h-10z M190,60h10v10h-10z M200,60h10v10h-10z M220,60h10v10h-10z M250,60h10v10h-10z M280,60h10v10h-10z M300,60h10v10h-10z M310,60h10v10h-10z M320,60h10v10h-10z M340,60h10v10h-10z M360,60h10v10h-10z M370,60h10v10h-10z M380,60h10v10h-10z M400,60h10v10h-10z M40,70h10v10h-10z M60,70h10v10h-10z M70,70h10v10h-10z M80,70h10v10h-10z M100,70h10v10h-10z M130,70h10v10h-10z M140,70h10v10h-10z M160,70h10v10h-10z M170,70h10v10h-10z M200,70h10v10h-10z M210,70h10v10h-10z M230,70h10v10h-10z M240,70h10v10h-10z M250,70h10v10h-10z M260,70h10v10h-10z M280,70h10v10h-10z M290,70h10v10h-10z M300,70h10v10h-10z M310,70h10v10h-10z M340,70h10v10h-10z M360,70h10v10h-10z M370,70h10v10h-10z M380,70h10v10h-10z M400,70h10v10h-10z M40,80h10v10h-10z M60,80h10v10h-10z M70,80h10v10h-10z M80,80h10v10h-10z M100,80h10v10h-10z M130,80h10v10h-10z M180,80h10v10h-10z M190,80h10v10h-10z M200,80h10v10h-10z M210,80h10v10h-10z M240,80h10v10h-10z M270,80h10v10h-10z M290,80h10v10h-10z M300,80h10v10h-10z M340,80h10v10h-10z M360,80h10v10h-10z M370,80h10v10h-10z M380,80h10v10h-10z M400,80h10v10h-10z M40,90h10v10h-10z M100,90h10v10h-10z M120,90h10v10h-10z M140,90h10v10h-10z M180,90h10v10h-10z M200,90h10v10h-10z M210,90h10v10h-10z M220,90h10v10h-10z M280,90h10v10h-10z M290,90h10v10h-10z M300,90h10v10h-10z M310,90h10v10h-10z M320,90h10v10h-10z M340,90h10v10h-10z M400,90h10v10h-10z M40,100h10v10h-10z M50,100h10v10h-10z M60,100h10v10h-10z M70,100h10v10h-10z M80,100h10v10h-10z M90,100h10v10h-10z M100,100h10v10h-10z M120,100h10v10h-10z M140,100h10v10h-10z M160,100h10v10h-10z M180,100h10v10h-10z M200,100h10v10h-10z M220,100h10v10h-10z M240,100h10v10h-10z M260,100h10v10h-10z M280,100h10v10h-10z M300,100h10v10h-10z M320,100h10v10h-10z M340,100h10v10h-10z M350,100h10v10h-10z M360,100h10v10h-10z M370,100h10v10h-10z M380,100h10v10h-10z M390,100h10v10h-10z M400,100h10v10h-10z M120,110h10v10h-10z M150,110h10v10h-10z M190,110h10v10h-10z M230,110h10v10h-10z M270,110h10v10h-10z M290,110h10v10h-10z M320,110h10v10h-10z M60,120h10v10h-10z M70,120h10v10h-10z M80,120h10v10h-10z M100,120h10v10h-10z M120,120h10v10h-10z M170,120h10v10h-10z M190,120h10v10h-10z M200,120h10v10h-10z M210,120h10v10h-10z M250,120h10v10h-10z M280,120h10v10h-10z M300,120h10v10h-10z M320,120h10v10h-10z M330,120h10v10h-10z M340,120h10v10h-10z M350,120h10v10h-10z M380,120h10v10h-10z M390,120h10v10h-10z M400,120h10v10h-10z M70,130h10v10h-10z M90,130h10v10h-10z M140,130h10v10h-10z M160,130h10v10h-10z M170,130h10v10h-10z M190,130h10v10h-10z M210,130h10v10h-10z M240,130h10v10h-10z M250,130h10v10h-10z M260,130h10v10h-10z M270,130h10v10h-10z M280,130h10v10h-10z M290,130h10v10h-10z M310,130h10v10h-10z M340,130h10v10h-10z M350,130h10v10h-10z M360,130h10v10h-10z M370,130h10v10h-10z M40,140h10v10h-10z M50,140h10v10h-10z M60,140h10v10h-10z M80,140h10v10h-10z M90,140h10v10h-10z M100,140h10v10h-10z M110,140h10v10h-10z M120,140h10v10h-10z M130,140h10v10h-10z M160,140h10v10h-10z M170,140h10v10h-10z M190,140h10v10h-10z M200,140h10v10h-10z M210,140h10v10h-10z M250,140h10v10h-10z M270,140h10v10h-10z M290,140h10v10h-10z M300,140h10v10h-10z M310,140h10v10h-10z M320,140h10v10h-10z M340,140h10v10h-10z M360,140h10v10h-10z M390,140h10v10h-10z M400,140h10v10h-10z M40,150h10v10h-10z M50,150h10v10h-10z M60,150h10v10h-10z M70,150h10v10h-10z M90,150h10v10h-10z M110,150h10v10h-10z M130,150h10v10h-10z M140,150h10v10h-10z M170,150h10v10h-10z M180,150h10v10h-10z M200,150h10v10h-10z M220,150h10v10h-10z M230,150h10v10h-10z M250,150h10v10h-10z M300,150h10v10h-10z M310,150h10v10h-10z M340,150h10v10h-10z M350,150h10v10h-10z M360,150h10v10h-10z M390,150h10v10h-10z M40,160h10v10h-10z M60,160h10v10h-10z M70,160h10v10h-10z M90,160h10v10h-10z M100,160h10v10h-10z M110,160h10v10h-10z M130,160h10v10h-10z M170,160h10v10h-10z M230,160h10v10h-10z M290,160h10v10h-10z M300,160h10v10h-10z M310,160h10v10h-10z M320,160h10v10h-10z M330,160h10v10h-10z M340,160h10v10h-10z M360,160h10v10h-10z M380,160h10v10h-10z M390,160h10v10h-10z M50,170h10v10h-10z M60,170h10v10h-10z M80,170h10v10h-10z M130,170h10v10h-10z M140,170h10v10h-10z M160,170h10v10h-10z M170,170h10v10h-10z M190,170h10v10h-10z M210,170h10v10h-10z M230,170h10v10h-10z M250,170h10v10h-10z M260,170h10v10h-10z M280,170h10v10h-10z M290,170h10v10h-10z M320,170h10v10h-10z M330,170h10v10h-10z M350,170h10v10h-10z M370,170h10v10h-10z M380,170h10v10h-10z M40,180h10v10h-10z M80,180h10v10h-10z M90,180h10v10h-10z M100,180h10v10h-10z M110,180h10v10h-10z M120,180h10v10h-10z M130,180h10v10h-10z M150,180h10v10h-10z M170,180h10v10h-10z M200,180h10v10h-10z M230,180h10v10h-10z M250,180h10v10h-10z M260,180h10v10h-10z M270,180h10v10h-10z M280,180h10v10h-10z M310,180h10v10h-10z M320,180h10v10h-10z M330,180h10v10h-10z M340,180h10v10h-10z M360,180h10v10h-10z M370,180h10v10h-10z M390,180h10v10h-10z M400,180h10v10h-10z M40,190h10v10h-10z M60,190h10v10h-10z M110,190h10v10h-10z M130,190h10v10h-10z M140,190h10v10h-10z M150,190h10v10h-10z M160,190h10v10h-10z M170,190h10v10h-10z M200,190h10v10h-10z M210,190h10v10h-10z M230,190h10v10h-10z M240,190h10v10h-10z M260,190h10v10h-10z M270,190h10v10h-10z M280,190h10v10h-10z M310,190h10v10h-10z M400,190h10v10h-10z M40,200h10v10h-10z M50,200h10v10h-10z M70,200h10v10h-10z M90,200h10v10h-10z M100,200h10v10h-10z M120,200h10v10h-10z M130,200h10v10h-10z M140,200h10v10h-10z M160,200h10v10h-10z M180,200h10v10h-10z M190,200h10v10h-10z M220,200h10v10h-10z M240,200h10v10h-10z M260,200h10v10h-10z M280,200h10v10h-10z M290,200h10v10h-10z M320,200h10v10h-10z M330,200h10v10h-10z M340,200h10v10h-10z M360,200h10v10h-10z M380,200h10v10h-10z M390,200h10v10h-10z M400,200h10v10h-10z M40,210h10v10h-10z M50,210h10v10h-10z M60,210h10v10h-10z M70,210h10v10h-10z M110,210h10v10h-10z M130,210h10v10h-10z M140,210h10v10h-10z M150,210h10v10h-10z M170,210h10v10h-10z M180,210h10v10h-10z M190,210h10v10h-10z M230,210h10v10h-10z M240,210h10v10h-10z M250,210h10v10h-10z M280,210h10v10h-10z M320,210h10v10h-10z M350,210h10v10h-10z M370,210h10v10h-10z M50,220h10v10h-10z M70,220h10v10h-10z M80,220h10v10h-10z M100,220h10v10h-10z M120,220h10v10h-10z M150,220h10v10h-10z M160,220h10v10h-10z M180,220h10v10h-10z M210,220h10v10h-10z M230,220h10v10h-10z M240,220h10v10h-10z M280,220h10v10h-10z M300,220h10v10h-10z M310,220h10v10h-10z M320,220h10v10h-10z M330,220h10v10h-10z M340,220h10v10h-10z M370,220h10v10h-10z M380,220h10v10h-10z M390,220h10v10h-10z M400,220h10v10h-10z M50,230h10v10h-10z M110,230h10v10h-10z M120,230h10v10h-10z M140,230h10v10h-10z M150,230h10v10h-10z M160,230h10v10h-10z M180,230h10v10h-10z M190,230h10v10h-10z M230,230h10v10h-10z M330,230h10v10h-10z M340,230h10v10h-10z M350,230h10v10h-10z M360,230h10v10h-10z M400,230h10v10h-10z M60,240h10v10h-10z M70,240h10v10h-10z M100,240h10v10h-10z M120,240h10v10h-10z M130,240h10v10h-10z M140,240h10v10h-10z M170,240h10v10h-10z M220,240h10v10h-10z M240,240h10v10h-10z M250,240h10v10h-10z M270,240h10v10h-10z M290,240h10v10h-10z M300,240h10v10h-10z M310,240h10v10h-10z M330,240h10v10h-10z M340,240h10v10h-10z M350,240h10v10h-10z M360,240h10v10h-10z M370,240h10v10h-10z M380,240h10v10h-10z M390,240h10v10h-10z M400,240h10v10h-10z M40,250h10v10h-10z M70,250h10v10h-10z M80,250h10v10h-10z M90,250h10v10h-10z M110,250h10v10h-10z M120,250h10v10h-10z M170,250h10v10h-10z M190,250h10v10h-10z M230,250h10v10h-10z M240,250h10v10h-10z M250,250h10v10h-10z M260,250h10v10h-10z M300,250h10v10h-10z M350,250h10v10h-10z M380,250h10v10h-10z M390,250h10v10h-10z M40,260h10v10h-10z M50,260h10v10h-10z M70,260h10v10h-10z M100,260h10v10h-10z M160,260h10v10h-10z M170,260h10v10h-10z M180,260h10v10h-10z M190,260h10v10h-10z M220,260h10v10h-10z M230,260h10v10h-10z M250,260h10v10h-10z M260,260h10v10h-10z M270,260h10v10h-10z M310,260h10v10h-10z M340,260h10v10h-10z M390,260h10v10h-10z M400,260h10v10h-10z M70,270h10v10h-10z M80,270h10v10h-10z M90,270h10v10h-10z M110,270h10v10h-10z M120,270h10v10h-10z M130,270h10v10h-10z M160,270h10v10h-10z M200,270h10v10h-10z M210,270h10v10h-10z M220,270h10v10h-10z M240,270h10v10h-10z M270,270h10v10h-10z M300,270h10v10h-10z M330,270h10v10h-10z M340,270h10v10h-10z M350,270h10v10h-10z M370,270h10v10h-10z M390,270h10v10h-10z M400,270h10v10h-10z M40,280h10v10h-10z M100,280h10v10h-10z M120,280h10v10h-10z M150,280h10v10h-10z M160,280h10v10h-10z M190,280h10v10h-10z M200,280h10v10h-10z M210,280h10v10h-10z M230,280h10v10h-10z M270,280h10v10h-10z M340,280h10v10h-10z M370,280h10v10h-10z M380,280h10v10h-10z M390,280h10v10h-10z M40,290h10v10h-10z M50,290h10v10h-10z M60,290h10v10h-10z M80,290h10v10h-10z M90,290h10v10h-10z M120,290h10v10h-10z M150,290h10v10h-10z M180,290h10v10h-10z M210,290h10v10h-10z M240,290h10v10h-10z M260,290h10v10h-10z M280,290h10v10h-10z M300,290h10v10h-10z M310,290h10v10h-10z M320,290h10v10h-10z M330,290h10v10h-10z M340,290h10v10h-10z M370,290h10v10h-10z M40,300h10v10h-10z M60,300h10v10h-10z M70,300h10v10h-10z M100,300h10v10h-10z M110,300h10v10h-10z M140,300h10v10h-10z M160,300h10v10h-10z M210,300h10v10h-10z M230,300h10v10h-10z M240,300h10v10h-10z M250,300h10v10h-10z M290,300h10v10h-10z M300,300h10v10h-10z M340,300h10v10h-10z M350,300h10v10h-10z M360,300h10v10h-10z M370,300h10v10h-10z M380,300h10v10h-10z M390,300h10v10h-10z M400,300h10v10h-10z M40,310h10v10h-10z M70,310h10v10h-10z M80,310h10v10h-10z M110,310h10v10h-10z M140,310h10v10h-10z M180,310h10v10h-10z M200,310h10v10h-10z M210,310h10v10h-10z M220,310h10v10h-10z M230,310h10v10h-10z M240,310h10v10h-10z M280,310h10v10h-10z M320,310h10v10h-10z M330,310h10v10h-10z M350,310h10v10h-10z M360,310h10v10h-10z M370,310h10v10h-10z M390,310h10v10h-10z M40,320h10v10h-10z M60,320h10v10h-10z M100,320h10v10h-10z M150,320h10v10h-10z M160,320h10v10h-10z M180,320h10v10h-10z M230,320h10v10h-10z M250,320h10v10h-10z M260,320h10v10h-10z M280,320h10v10h-10z M290,320h10v10h-10z M300,320h10v10h-10z M320,320h10v10h-10z M330,320h10v10h-10z M340,320h10v10h-10z M350,320h10v10h-10z M360,320h10v10h-10z M370,320h10v10h-10z M380,320h10v10h-10z M400,320h10v10h-10z M120,330h10v10h-10z M140,330h10v10h-10z M150,330h10v10h-10z M160,330h10v10h-10z M180,330h10v10h-10z M190,330h10v10h-10z M200,330h10v10h-10z M210,330h10v10h-10z M220,330h10v10h-10z M230,330h10v10h-10z M250,330h10v10h-10z M270,330h10v10h-10z M280,330h10v10h-10z M290,330h10v10h-10z M300,330h10v10h-10z M310,330h10v10h-10z M320,330h10v10h-10z M360,330h10v10h-10z M390,330h10v10h-10z M40,340h10v10h-10z M50,340h10v10h-10z M60,340h10v10h-10z M70,340h10v10h-10z M80,340h10v10h-10z M90,340h10v10h-10z M100,340h10v10h-10z M140,340h10v10h-10z M150,340h10v10h-10z M180,340h10v10h-10z M210,340h10v10h-10z M240,340h10v10h-10z M260,340h10v10h-10z M290,340h10v10h-10z M300,340h10v10h-10z M320,340h10v10h-10z M340,340h10v10h-10z M360,340h10v10h-10z M370,340h10v10h-10z M390,340h10v10h-10z M400,340h10v10h-10z M40,350h10v10h-10z M100,350h10v10h-10z M130,350h10v10h-10z M140,350h10v10h-10z M150,350h10v10h-10z M160,350h10v10h-10z M170,350h10v10h-10z M180,350h10v10h-10z M200,350h10v10h-10z M210,350h10v10h-10z M240,350h10v10h-10z M260,350h10v10h-10z M270,350h10v10h-10z M320,350h10v10h-10z M360,350h10v10h-10z M390,350h10v10h-10z M400,350h10v10h-10z M40,360h10v10h-10z M60,360h10v10h-10z M70,360h10v10h-10z M80,360h10v10h-10z M100,360h10v10h-10z M120,360h10v10h-10z M130,360h10v10h-10z M140,360h10v10h-10z M160,360h10v10h-10z M180,360h10v10h-10z M220,360h10v10h-10z M240,360h10v10h-10z M260,360h10v10h-10z M270,360h10v10h-10z M280,360h10v10h-10z M290,360h10v10h-10z M300,360h10v10h-10z M310,360h10v10h-10z M320,360h10v10h-10z M330,360h10v10h-10z M340,360h10v10h-10z M350,360h10v10h-10z M360,360h10v10h-10z M380,360h10v10h-10z M390,360h10v10h-10z M400,360h10v10h-10z M40,370h10v10h-10z M60,370h10v10h-10z M70,370h10v10h-10z M80,370h10v10h-10z M100,370h10v10h-10z M120,370h10v10h-10z M130,370h10v10h-10z M160,370h10v10h-10z M170,370h10v10h-10z M190,370h10v10h-10z M200,370h10v10h-10z M240,370h10v10h-10z M320,370h10v10h-10z M340,370h10v10h-10z M350,370h10v10h-10z M360,370h10v10h-10z M380,370h10v10h-10z M40,380h10v10h-10z M60,380h10v10h-10z M70,380h10v10h-10z M80,380h10v10h-10z M100,380h10v10h-10z M120,380h10v10h-10z M150,380h10v10h-10z M160,380h10v10h-10z M180,380h10v10h-10z M210,380h10v10h-10z M240,380h10v10h-10z M250,380h10v10h-10z M260,380h10v10h-10z M270,380h10v10h-10z M280,380h10v10h-10z M290,380h10v10h-10z M330,380h10v10h-10z M350,380h10v10h-10z M380,380h10v10h-10z M400,380h10v10h-10z M40,390h10v10h-10z M100,390h10v10h-10z M140,390h10v10h-10z M170,390h10v10h-10z M180,390h10v10h-10z M190,390h10v10h-10z M210,390h10v10h-10z M260,390h10v10h-10z M270,390h10v10h-10z M320,390h10v10h-10z M330,390h10v10h-10z M340,390h10v10h-10z M350,390h10v10h-10z M360,390h10v10h-10z M400,390h10v10h-10z M40,400h10v10h-10z M50,400h10v10h-10z M60,400h10v10h-10z M70,400h10v10h-10z M80,400h10v10h-10z M90,400h10v10h-10z M100,400h10v10h-10z M130,400h10v10h-10z M140,400h10v10h-10z M170,400h10v10h-10z M200,400h10v10h-10z M220,400h10v10h-10z M230,400h10v10h-10z M250,400h10v10h-10z M260,400h10v10h-10z M270,400h10v10h-10z M280,400h10v10h-10z M290,400h10v10h-10z M300,400h10v10h-10z M330,400h10v10h-10z M340,400h10v10h-10z M350,400h10v10h-10z M360,400h10v10h-10z M370,400h10v10h-10z M380,400h10v10h-10z M390,400h10v10h-10z M400,400h10v10h-10z"/>
	<g aria-hidden="true">
		<circle cx="225" cy="225" r="38" fill="#FFFFFF"/>
		<circle cx="225" cy="225" r="30" fill="#FFFFFF" stroke="#0D1B4B" stroke-width="4"/>
		<polygon points="225,212 238,221 233,237 217,237 212,221" fill="#0D1B4B"/>
		<path d="M217 198L225 212L233 198M254 220L238 221L250 238M243 249L233 237L217 237L207 249M200 238L212 221L196 220" fill="none" stroke="#0D1B4B" stroke-width="4" stroke-linecap="round" stroke-linejoin="round"/>
	</g>
</svg>
