<svg xmlns="http://www.w3.org/2000/svg" width="450" height="450" viewBox="0 0 450 450" role="img" aria-label="QR de registro Futbol Fest X">
	<metadata>Encoded URL: https://futbolfestx.com/formulario-registro/</metadata>
	<rect width="100%" height="100%" fill="#FFFFFF"/>
	<path fill="#0D1B4B" d="M40,40h10v10h-10z M50,40h10v10h-10z M60,40h10v10h-10z M70,40h10v10h-10z M80,40h10v10h-10z M90,40h10v10h-10z M100,40h10v10h-10z M130,40h10v10h-10z M140,40h10v10h-10z M150,40h10v10h-10z M160,40h10v10h-10z M170,40h10v10h-10z M180,40h10v10h-10z M200,40h10v10h-10z M210,40h10v10h-10z M230,40h10v10h-10z M270,40h10v10h-10z M280,40h10v10h-10z M290,40h10v10h-10z M340,40h10v10h-10z M350,40h10v10h-10z M360,40h10v10h-10z M370,40h10v10h-10z M380,40h10v10h-10z M390,40h10v10h-10z M400,40h10v10h-10z M40,50h10v10h-10z M100,50h10v10h-10z M150,50h10v10h-10z M160,50h10v10h-10z M170,50h10v10h-10z M210,50h10v10h-10z M220,50h10v10h-10z M260,50h10v10h-10z M290,50h10v10h-10z M340,50h10v10h-10z M400,50h10v10h-10z M40,60h10v10h-10z M60,60h10v10h-10z M70,60h10v10h-10z M80,60h10v10h-10z M100,60h10v10h-10z M120,60h10v10h-10z M140,60h10v10h-10z M150,60h10v10h-10z M170,60h10v10h-10z M190,60h10v10h-10z M220,60h10v10h-10z M250,60h10v10h-10z M280,60h10v10h-10z M290,60h10v10h-10z M300,60h10v10h-10z M310,60h10v10h-10z M340,60h10v10h-10z M360,60h10v10h-10z M370,60h10v10h-10z M380,60h10v10h-10z M400,60h10v10h-10z M40,70h10v10h-10z M60,70h10v10h-10z M70,70h10v10h-10z M80,70h10v10h-10z M100,70h10v10h-10z M120,70h10v10h-10z M150,70h10v10h-10z M190,70h10v10h-10z M200,70h10v10h-10z M230,70h10v10h-10z M280,70h10v10h-10z M290,70h10v10h-10z M320,70h10v10h-10z M340,70h10v10h-10z M360,70h10v10h-10z M370,70h10v10h-10z M380,70h10v10h-10z M400,70h10v10h-10z M40,80h10v10h-10z M60,80h10v10h-10z M70,80h10v10h-10z M80,80h10v10h-10z M100,80h10v10h-10z M130,80h10v10h-10z M160,80h10v10h-10z M170,80h10v10h-10z M180,80h10v10h-10z M200,80h10v10h-10z M230,80h10v10h-10z M250,80h10v10h-10z M260,80h10v10h-10z M270,80h10v10h-10z M280,80h10v10h-10z M300,80h10v10h-10z M340,80h10v10h-10z M360,80h10v10h-10z M370,80h10v10h-10z M380,80h10v10h-10z M400,80h10v10h-10z M40,90h10v10h-10z M100,90h10v10h-10z M130,90h10v10h-10z M150,90h10v10h-10z M180,90h10v10h-10z M200,90h10v10h-10z M220,90h10v10h-10z M240,90h10v10h-10z M250,90h10v10h-10z M260,90h10v10h-10z M300,90h10v10h-10z M340,90h10v10h-10z M400,90h10v10h-10z M40,100h10v10h-10z M50,100h10v10h-10z M60,100h10v10h-10z M70,100h10v10h-10z M80,100h10v10h-10z M90,100h10v10h-10z M100,100h10v10h-10z M120,100h10v10h-10z M140,100h10v10h-10z M160,100h10v10h-10z M180,100h10v10h-10z M200,100h10v10h-10z M220,100h10v10h-10z M240,100h10v10h-10z M260,100h10v10h-10z M280,100h10v10h-10z M300,100h10v10h-10z M320,100h10v10h-10z M340,100h10v10h-10z M350,100h10v10h-10z M360,100h10v10h-10z M370,100h10v10h-10z M380,100h10v10h-10z M390,100h10v10h-10z M400,100h10v10h-10z M130,110h10v10h-10z M180,110h10v10h-10z M190,110h10v10h-10z M200,110h10v10h-10z M230,110h10v10h-10z M240,110h10v10h-10z M250,110h10v10h-10z M260,110h10v10h-10z M270,110h10v10h-10z M280,110h10v10h-10z M290,110h10v10h-10z M300,110h10v10h-10z M310,110h10v10h-10z M320,110h10v10h-10z M70,120h10v10h-10z M80,120h10v10h-10z M100,120h10v10h-10z M110,120h10v10h-10z M140,120h10v10h-10z M170,120h10v10h-10z M180,120h10v10h-10z M200,120h10v10h-10z M210,120h10v10h-10z M270,120h10v10h-10z M300,120h10v10h-10z M370,120h10v10h-10z M380,120h10v10h-10z M40,130h10v10h-10z M50,130h10v10h-10z M70,130h10v10h-10z M90,130h10v10h-10z M120,130h10v10h-10z M130,130h10v10h-10z M160,130h10v10h-10z M180,130h10v10h-10z M190,130h10v10h-10z M210,130h10v10h-10z M250,130h10v10h-10z M260,130h10v10h-10z M280,130h10v10h-10z M290,130h10v10h-10z M310,130h10v10h-10z M350,130h10v10h-10z M360,130h10v10h-10z M370,130h10v10h-10z M50,140h10v10h-10z M80,140h10v10h-10z M100,140h10v10h-10z M110,140h10v10h-10z M150,140h10v10h-10z M160,140h10v10h-10z M190,140h10v10h-10z M220,140h10v10h-10z M240,140h10v10h-10z M260,140h10v10h-10z M270,140h10v10h-10z M280,140h10v10h-10z M290,140h10v10h-10z M310,140h10v10h-10z M320,140h10v10h-10z M330,140h10v10h-10z M340,140h10v10h-10z M350,140h10v10h-10z M360,140h10v10h-10z M380,140h10v10h-10z M400,140h10v10h-10z M50,150h10v10h-10z M60,150h10v10h-10z M80,150h10v10h-10z M90,150h10v10h-10z M110,150h10v10h-10z M130,150h10v10h-10z M140,150h10v10h-10z M150,150h10v10h-10z M180,150h10v10h-10z M210,150h10v10h-10z M230,150h10v10h-10z M270,150h10v10h-10z M300,150h10v10h-10z M310,150h10v10h-10z M320,150h10v10h-10z M330,150h10v10h-10z M340,150h10v10h-10z M350,150h10v10h-10z M380,150h10v10h-10z M40,160h10v10h-10z M60,160h10v10h-10z M90,160h10v10h-10z M100,160h10v10h-10z M130,160h10v10h-10z M150,160h10v10h-10z M160,160h10v10h-10z M170,160h10v10h-10z M180,160h10v10h-10z M210,160h10v10h-10z M240,160h10v10h-10z M260,160h10v10h-10z M270,160h10v10h-10z M310,160h10v10h-10z M340,160h10v10h-10z M350,160h10v10h-10z M370,160h10v10h-10z M50,170h10v10h-10z M60,170h10v10h-10z M70,170h10v10h-10z M90,170h10v10h-10z M110,170h10v10h-10z M130,170h10v10h-10z M140,170h10v10h-10z M150,170h10v10h-10z M160,170h10v10h-10z M180,170h10v10h-10z M200,170h10v10h-10z M210,170h10v10h-10z M220,170h10v10h-10z M230,170h10v10h-10z M280,170h10v10h-10z M300,170h10v10h-10z M310,170h10v10h-10z M320,170h10v10h-10z M330,170h10v10h-10z M360,170h10v10h-10z M380,170h10v10h-10z M40,180h10v10h-10z M50,180h10v10h-10z M70,180h10v10h-10z M80,180h10v10h-10z M100,180h10v10h-10z M110,180h10v10h-10z M120,180h10v10h-10z M130,180h10v10h-10z M140,180h10v10h-10z M210,180h10v10h-10z M240,180h10v10h-10z M250,180h10v10h-10z M290,180h10v10h-10z M310,180h10v10h-10z M330,180h10v10h-10z M340,180h10v10h-10z M350,180h10v10h-10z M360,180h10v10h-10z M370,180h10v10h-10z M380,180h10v10h-10z M390,180h10v10h-10z M400,180h10v10h-10z M40,190h10v10h-10z M60,190h10v10h-10z M70,190h10v10h-10z M80,190h10v10h-10z M110,190h10v10h-10z M140,190h10v10h-10z M160,190h10v10h-10z M170,190h10v10h-10z M180,190h10v10h-10z M200,190h10v10h-10z M210,190h10v10h-10z M220,190h10v10h-10z M230,190h10v10h-10z M240,190h10v10h-10z M250,190h10v10h-10z M270,190h10v10h-10z M300,190h10v10h-10z M350,190h10v10h-10z M360,190h10v10h-10z M370,190h10v10h-10z M380,190h10v10h-10z M400,190h10v10h-10z M40,200h10v10h-10z M50,200h10v10h-10z M70,200h10v10h-10z M90,200h10v10h-10z M100,200h10v10h-10z M150,200h10v10h-10z M210,200h10v10h-10z M240,200h10v10h-10z M260,200h10v10h-10z M270,200h10v10h-10z M280,200h10v10h-10z M290,200h10v10h-10z M300,200h10v10h-10z M320,200h10v10h-10z M340,200h10v10h-10z M380,200h10v10h-10z M400,200h10v10h-10z M40,210h10v10h-10z M50,210h10v10h-10z M60,210h10v10h-10z M80,210h10v10h-10z M90,210h10v10h-10z M130,210h10v10h-10z M140,210h10v10h-10z M180,210h10v10h-10z M200,210h10v10h-10z M210,210h10v10h-10z M230,210h10v10h-10z M240,210h10v10h-10z M260,210h10v10h-10z M270,210h10v10h-10z M280,210h10v10h-10z M290,210h10v10h-10z M310,210h10v10h-10z M330,210h10v10h-10z M350,210h10v10h-10z M380,210h10v10h-10z M390,210h10v10h-10z M50,220h10v10h-10z M60,220h10v10h-10z M70,220h10v10h-10z M90,220h10v10h-10z M100,220h10v10h-10z M120,220h10v10h-10z M130,220h10v10h-10z M150,220h10v10h-10z M180,220h10v10h-10z M200,220h10v10h-10z M210,220h10v10h-10z M220,220h10v10h-10z M240,220h10v10h-10z M250,220h10v10h-10z M260,220h10v10h-10z M270,220h10v10h-10z M280,220h10v10h-10z M290,220h10v10h-10z M310,220h10v10h-10z M350,220h10v10h-10z M360,220h10v10h-10z M370,220h10v10h-10z M400,220h10v10h-10z M40,230h10v10h-10z M50,230h10v10h-10z M60,230h10v10h-10z M70,230h10v10h-10z M90,230h10v10h-10z M110,230h10v10h-10z M160,230h10v10h-10z M170,230h10v10h-10z M230,230h10v10h-10z M250,230h10v10h-10z M290,230h10v10h-10z M300,230h10v10h-10z M310,230h10v10h-10z M330,230h10v10h-10z M370,230h10v10h-10z M400,230h10v10h-10z M60,240h10v10h-10z M70,240h10v10h-10z M80,240h10v10h-10z M90,240h10v10h-10z M100,240h10v10h-10z M120,240h10v10h-10z M140,240h10v10h-10z M150,240h10v10h-10z M160,240h10v10h-10z M170,240h10v10h-10z M250,240h10v10h-10z M260,240h10v10h-10z M270,240h10v10h-10z M280,240h10v10h-10z M300,240h10v10h-10z M310,240h10v10h-10z M320,240h10v10h-10z M330,240h10v10h-10z M340,240h10v10h-10z M360,240h10v10h-10z M370,240h10v10h-10z M390,240h10v10h-10z M40,250h10v10h-10z M60,250h10v10h-10z M70,250h10v10h-10z M90,250h10v10h-10z M120,250h10v10h-10z M130,250h10v10h-10z M150,250h10v10h-10z M170,250h10v10h-10z M200,250h10v10h-10z M220,250h10v10h-10z M230,250h10v10h-10z M240,250h10v10h-10z M250,250h10v10h-10z M260,250h10v10h-10z M300,250h10v10h-10z M310,250h10v10h-10z M320,250h10v10h-10z M330,250h10v10h-10z M350,250h10v10h-10z M360,250h10v10h-10z M370,250h10v10h-10z M50,260h10v10h-10z M60,260h10v10h-10z M70,260h10v10h-10z M90,260h10v10h-10z M100,260h10v10h-10z M120,260h10v10h-10z M150,260h10v10h-10z M160,260h10v10h-10z M170,260h10v10h-10z M200,260h10v10h-10z M210,260h10v10h-10z M220,260h10v10h-10z M230,260h10v10h-10z M290,260h10v10h-10z M300,260h10v10h-10z M310,260h10v10h-10z M340,260h10v10h-10z M360,260h10v10h-10z M400,260h10v10h-10z M50,270h10v10h-10z M60,270h10v10h-10z M70,270h10v10h-10z M120,270h10v10h-10z M140,270h10v10h-10z M160,270h10v10h-10z M170,270h10v10h-10z M190,270h10v10h-10z M220,270h10v10h-10z M230,270h10v10h-10z M240,270h10v10h-10z M260,270h10v10h-10z M280,270h10v10h-10z M310,270h10v10h-10z M320,270h10v10h-10z M350,270h10v10h-10z M380,270h10v10h-10z M400,270h10v10h-10z M50,280h10v10h-10z M60,280h10v10h-10z M80,280h10v10h-10z M90,280h10v10h-10z M100,280h10v10h-10z M110,280h10v10h-10z M140,280h10v10h-10z M160,280h10v10h-10z M170,280h10v10h-10z M230,280h10v10h-10z M240,280h10v10h-10z M250,280h10v10h-10z M270,280h10v10h-10z M280,280h10v10h-10z M340,280h10v10h-10z M350,280h10v10h-10z M370,280h10v10h-10z M390,280h10v10h-10z M40,290h10v10h-10z M50,290h10v10h-10z M70,290h10v10h-10z M80,290h10v10h-10z M90,290h10v10h-10z M110,290h10v10h-10z M150,290h10v10h-10z M180,290h10v10h-10z M200,290h10v10h-10z M230,290h10v10h-10z M280,290h10v10h-10z M290,290h10v10h-10z M300,290h10v10h-10z M310,290h10v10h-10z M320,290h10v10h-10z M360,290h10v10h-10z M370,290h10v10h-10z M380,290h10v10h-10z M40,300h10v10h-10z M50,300h10v10h-10z M60,300h10v10h-10z M80,300h10v10h-10z M100,300h10v10h-10z M140,300h10v10h-10z M160,300h10v10h-10z M180,300h10v10h-10z M190,300h10v10h-10z M200,300h10v10h-10z M240,300h10v10h-10z M250,300h10v10h-10z M260,300h10v10h-10z M300,300h10v10h-10z M310,300h10v10h-10z M340,300h10v10h-10z M350,300h10v10h-10z M360,300h10v10h-10z M380,300h10v10h-10z M390,300h10v10h-10z M400,300h10v10h-10z M40,310h10v10h-10z M60,310h10v10h-10z M110,310h10v10h-10z M120,310h10v10h-10z M130,310h10v10h-10z M140,310h10v10h-10z M180,310h10v10h-10z M230,310h10v10h-10z M260,310h10v10h-10z M270,310h10v10h-10z M300,310h10v10h-10z M320,310h10v10h-10z M330,310h10v10h-10z M360,310h10v10h-10z M370,310h10v10h-10z M380,310h10v10h-10z M390,310h10v10h-10z M40,320h10v10h-10z M80,320h10v10h-10z M90,320h10v10h-10z M100,320h10v10h-10z M120,320h10v10h-10z M130,320h10v10h-10z M160,320h10v10h-10z M170,320h10v10h-10z M210,320h10v10h-10z M220,320h10v10h-10z M230,320h10v10h-10z M240,320h10v10h-10z M250,320h10v10h-10z M260,320h10v10h-10z M280,320h10v10h-10z M290,320h10v10h-10z M320,320h10v10h-10z M330,320h10v10h-10z M340,320h10v10h-10z M350,320h10v10h-10z M360,320h10v10h-10z M380,320h10v10h-10z M390,320h10v10h-10z M400,320h10v10h-10z M120,330h10v10h-10z M160,330h10v10h-10z M180,330h10v10h-10z M200,330h10v10h-10z M210,330h10v10h-10z M240,330h10v10h-10z M290,330h10v10h-10z M300,330h10v10h-10z M320,330h10v10h-10z M360,330h10v10h-10z M370,330h10v10h-10z M380,330h10v10h-10z M40,340h10v10h-10z M50,340h10v10h-10z M60,340h10v10h-10z M70,340h10v10h-10z M80,340h10v10h-10z M90,340h10v10h-10z M100,340h10v10h-10z M120,340h10v10h-10z M130,340h10v10h-10z M140,340h10v10h-10z M170,340h10v10h-10z M200,340h10v10h-10z M230,340h10v10h-10z M240,340h10v10h-10z M270,340h10v10h-10z M280,340h10v10h-10z M320,340h10v10h-10z M340,340h10v10h-10z M360,340h10v10h-10z M370,340h10v10h-10z M380,340h10v10h-10z M400,340h10v10h-10z M40,350h10v10h-10z M100,350h10v10h-10z M130,350h10v10h-10z M150,350h10v10h-10z M200,350h10v10h-10z M220,350h10v10h-10z M250,350h10v10h-10z M260,350h10v10h-10z M270,350h10v10h-10z M280,350h10v10h-10z M290,350h10v10h-10z M300,350h10v10h-10z M310,350h10v10h-10z M320,350h10v10h-10z M360,350h10v10h-10z M370,350h10v10h-10z M390,350h10v10h-10z M400,350h10v10h-10z M40,360h10v10h-10z M60,360h10v10h-10z M70,360h10v10h-10z M80,360h10v10h-10z M100,360h10v10h-10z M120,360h10v10h-10z M150,360h10v10h-10z M160,360h10v10h-10z M170,360h10v10h-10z M180,360h10v10h-10z M190,360h10v10h-10z M200,360h10v10h-10z M220,360h10v10h-10z M240,360h10v10h-10z M280,360h10v10h-10z M300,360h10v10h-10z M310,360h10v10h-10z M320,360h10v10h-10z M330,360h10v10h-10z M340,360h10v10h-10z M350,360h10v10h-10z M360,360h10v10h-10z M390,360h10v10h-10z M400,360h10v10h-10z M40,370h10v10h-10z M60,370h10v10h-10z M70,370h10v10h-10z M80,370h10v10h-10z M100,370h10v10h-10z M120,370h10v10h-10z M140,370h10v10h-10z M150,370h10v10h-10z M160,370h10v10h-10z M180,370h10v10h-10z M210,370h10v10h-10z M230,370h10v10h-10z M240,370h10v10h-10z M250,370h10v10h-10z M260,370h10v10h-10z M270,370h10v10h-10z M280,370h10v10h-10z M300,370h10v10h-10z M340,370h10v10h-10z M370,370h10v10h-10z M40,380h10v10h-10z M60,380h10v10h-10z M70,380h10v10h-10z M80,380h10v10h-10z M100,380h10v10h-10z M130,380h10v10h-10z M150,380h10v10h-10z M180,380h10v10h-10z M220,380h10v10h-10z M240,380h10v10h-10z M250,380h10v10h-10z M270,380h10v10h-10z M300,380h10v10h-10z M310,380h10v10h-10z M350,380h10v10h-10z M360,380h10v10h-10z M380,380h10v10h-10z M390,380h10v10h-10z M400,380h10v10h-10z M40,390h10v10h-10z M100,390h10v10h-10z M130,390h10v10h-10z M150,390h10v10h-10z M160,390h10v10h-10z M180,390h10v10h-10z M200,390h10v10h-10z M210,390h10v10h-10z M220,390h10v10h-10z M250,390h10v10h-10z M260,390h10v10h-10z M300,390h10v10h-10z M310,390h10v10h-10z M340,390h10v10h-10z M350,390h10v10h-10z M360,390h10v10h-10z M370,390h10v10h-10z M380,390h10v10h-10z M390,390h10v10h-10z M400,390h10v10h-10z M40,400h10v10h-10z M50,400h10v10h-10z M60,400h10v10h-10z M70,400h10v10h-10z M80,400h10v10h-10z M90,400h10v10h-10z M100,400h10v10h-10z M160,400h10v10h-10z M180,400h10v10h-10z M210,400h10v10h-10z M230,400h10v10h-10z M240,400h10v10h-10z M250,400h10v10h-10z M260,400h10v10h-10z M320,400h10v10h-10z M340,400h10v10h-10z M370,400h10v10h-10z M400,400h10v10h-10z"/>
	<g aria-hidden="true">
		<circle cx="225" cy="225" r="38" fill="#FFFFFF"/>
		<circle cx="225" cy="225" r="30" fill="#FFFFFF" stroke="#0D1B4B" stroke-width="4"/>
		<polygon points="225,212 238,221 233,237 217,237 212,221" fill="#0D1B4B"/>
		<path d="M217 198L225 212L233 198M254 220L238 221L250 238M243 249L233 237L217 237L207 249M200 238L212 221L196 220" fill="none" stroke="#0D1B4B" stroke-width="4" stroke-linecap="round" stroke-linejoin="round"/>
	</g>
</svg>
