<svg width="14" height="14" viewBox="0 0 14 14" fill="none" xmlns="http://www.w3.org/2000/svg">
<path d="M7.3505 12.7161C8.4355 11.7793 11.6666 8.74594 11.6666 5.83335C11.6666 4.59568 11.1749 3.40869 10.2998 2.53352C9.42458 1.65835 8.2376 1.16669 6.99992 1.16669C5.76224 1.16669 4.57526 1.65835 3.70009 2.53352C2.82492 3.40869 2.33325 4.59568 2.33325 5.83335C2.33325 8.74594 5.56434 11.7793 6.64934 12.7161C6.75041 12.7921 6.87345 12.8332 6.99992 12.8332C7.12638 12.8332 7.24942 12.7921 7.3505 12.7161Z" stroke="#F5A200" stroke-width="1.16667" stroke-linecap="round" stroke-linejoin="round"/>
<path d="M7 7.58331C7.9665 7.58331 8.75 6.79981 8.75 5.83331C8.75 4.86681 7.9665 4.08331 7 4.08331C6.0335 4.08331 5.25 4.86681 5.25 5.83331C5.25 6.79981 6.0335 7.58331 7 7.58331Z" stroke="#F5A200" stroke-width="1.16667" stroke-linecap="round" stroke-linejoin="round"/>
</svg>
